<?xml version="1.0" encoding="UTF-8" standalone="no"?>
<!DOCTYPE svg PUBLIC "-//W3C//DTD SVG 1.1//EN" "http://www.w3.org/Graphics/SVG/1.1/DTD/svg11.dtd">
<svg width="100%" height="100%" viewBox="0 0 432 432" version="1.1" xmlns="http://www.w3.org/2000/svg" xmlns:xlink="http://www.w3.org/1999/xlink" xml:space="preserve" xmlns:serif="http://www.serif.com/" style="fill-rule:evenodd;clip-rule:evenodd;stroke-linejoin:round;stroke-miterlimit:2;">
    <path d="M310,304.5L310,208L232,308L200,308L122,208L122,320L72,320L72,130L140,130L216,230L292,130L360,130L360,248.25L310,304.5ZM360,248.25L362,246L380,264L360,286.439L360,248.25ZM360,286.439L360,320L330.087,320L360,286.439ZM330.087,320L298,356L244,302L262,282L298,318L310,304.5L310,320L330.087,320ZM204,52L228,52L228,110L286,110L286,134L228,134L228,192L204,192L204,134L146,134L146,110L204,110L204,52Z"/>
</svg>
